<svg xmlns="http://www.w3.org/2000/svg" width="32" height="32" fill="none"><path fill="#00A7FF" fill-rule="evenodd" d="M0 8.85C0 3.96 3.96 0 8.85 0 21.63 0 32 10.36 32 23.14c0 4.89-3.97 8.86-8.86 8.86H4c-2.21 0-4-1.8-4-4V8.85Z"/><path fill="#FFF" fill-rule="evenodd" d="M15.82 4.84a7.795 7.795 0 0 0-3.52-1.5c-1.7-.27-3.35.03-4.78.76-1.53.78-2.7 1.99-3.42 3.42a7.737 7.737 0 0 0-.76 4.78c.21 1.33.74 2.52 1.5 3.52.35.47 1.03.46 1.45.04.42-.41.41-1.08.08-1.57-.49-.71-.79-1.5-.92-2.32-.2-1.24.02-2.44.55-3.48A5.653 5.653 0 0 1 8.49 6c1.11-.57 2.33-.74 3.48-.55a5.5 5.5 0 0 1 2.32.92c.49.33 1.16.34 1.57-.08.42-.42.43-1.1-.04-1.45ZM27.02 16.04c.8 1.05 1.3 2.26 1.49 3.51.27 1.7-.03 3.36-.75 4.78-.78 1.54-2 2.7-3.43 3.43a7.73 7.73 0 0 1-4.78.75 7.64 7.64 0 0 1-3.51-1.49c-.47-.36-.47-1.04-.05-1.46.42-.41 1.09-.4 1.57-.07a5.699 5.699 0 0 0 5.8.37 5.698 5.698 0 0 0 2.5-2.5c.56-1.11.73-2.33.55-3.48-.14-.86-.46-1.64-.92-2.32-.33-.48-.34-1.15.07-1.57.42-.42 1.1-.42 1.46.05Z"/><rect width="4.444" height="19.556" x="7.71" y="10.525" fill="#FFF" rx="2.222" transform="rotate(-45.06 7.71 10.525)"/></svg>